<svg xmlns="http://www.w3.org/2000/svg" width="100" height="100" viewBox="0 0 100 100">
  <path id="noun-icon-3037230-23376F" d="M80,30a50,50,0,1,0,50,50A50.045,50.045,0,0,0,80,30ZM92,53.895a6.632,6.632,0,1,1-6.632,6.632A6.6,6.6,0,0,1,92,53.895Zm13.368,44H54.632A3.728,3.728,0,0,1,51.579,92L70.316,65.895a3.741,3.741,0,0,1,6.105,0L87.263,81.053a1.279,1.279,0,0,0,2.105,0l2.526-3.474a3.741,3.741,0,0,1,6.105,0L108.421,92a3.728,3.728,0,0,1-3.053,5.895Z" transform="translate(-30 -30)" fill="#4f5966"/>
</svg>
