<svg xmlns="http://www.w3.org/2000/svg" width="392.597" height="430.495" viewBox="0 0 392.597 430.495">
  <g id="Group_17" data-name="Group 17" transform="translate(-281 -2008)">
    <text id="_1400_x_1400" data-name="1400 x 1400" transform="translate(368 2424.496)" fill="#4f5966" font-size="44" font-family="Noah-Regular, Noah"><tspan x="0" y="0">1400 x 1400</tspan></text>
    <g id="noun-picture-2059580-23376F" transform="translate(250.997 1865.215)">
      <path id="Path_1" data-name="Path 1" d="M74.634,368.018,54.384,218.831c-1.653-11.157,6.2-21.076,17.356-22.729L285.809,166.76H288.7a20.045,20.045,0,0,1,19.837,17.356l1.653,12.4h24.383l-2.066-15.29a44.821,44.821,0,0,0-16.943-29.341,44.328,44.328,0,0,0-32.648-8.678L68.435,172.132a44.324,44.324,0,0,0-38.02,50l20.25,149.187c2.892,21.9,21.9,38.02,43.806,38.02H95.3V384.961c-9.919.827-19.011-6.61-20.663-16.942Z" transform="translate(0)" fill="#4f5966"/>
      <path id="Path_2" data-name="Path 2" d="M545.955,363.6H329.819A44.269,44.269,0,0,0,285.6,407.819V558.246a44.269,44.269,0,0,0,44.219,44.219H545.955a44.269,44.269,0,0,0,44.219-44.219V407.819A44.269,44.269,0,0,0,545.955,363.6ZM329.819,387.568H545.955a19.842,19.842,0,0,1,19.837,19.837V533.864L502.15,461.13a26.7,26.7,0,0,0-40.5,0L407.1,524.359l-19.837-21.9a24.848,24.848,0,0,0-37.193,0l-40.086,44.219V407.818a19.679,19.679,0,0,1,19.837-20.25Z" transform="translate(-167.574 -144.769)" fill="#4f5966"/>
      <path id="Path_3" data-name="Path 3" d="M503.938,542.368A23.969,23.969,0,1,1,479.97,518.4a23.97,23.97,0,0,1,23.968,23.97" transform="translate(-279.291 -246.257)" fill="#4f5966"/>
    </g>
  </g>
</svg>
