<svg xmlns="http://www.w3.org/2000/svg" xmlns:xlink="http://www.w3.org/1999/xlink" width="1920" height="694" viewBox="0 0 1920 694">
  <defs>
    <clipPath id="clip-path">
      <rect id="Rectangle_14" data-name="Rectangle 14" width="1920" height="694" transform="translate(-2004 2456)" fill="#4f5966"/>
    </clipPath>
  </defs>
  <g id="Mask_Group_1" data-name="Mask Group 1" transform="translate(2004 -2456)" opacity="0.01" clip-path="url(#clip-path)">
    <g id="bg_for_desert_dev_start_up" data-name="bg for desert dev start up" transform="translate(-1738 3150)">
      <path id="Path_72" data-name="Path 72" d="M.008-677.286v16.413H5.881c26.954,0,59.479,10.992,85.378,28.76,15.359,10.691,42.162,38.548,40.807,42.614-.3.753-6.776,4.066-14.3,7.228l-13.853,5.722L93.819-587.24c-21.382-22.737-47.884-36.44-77.7-40.506-6.475-.753-12.8-1.506-14-1.506-1.656,0-2.108,3.162-2.108,15.811,0,17.768-1.355,16.112,14.3,18.069,18.672,2.409,41.108,14,53.907,27.706,3.915,4.216,7.077,8.131,7.077,8.734,0,1.054-10.239,10.39-19.123,17.618-3.614,2.711-3.614,2.711-11.745-4.969-9.637-9.035-23.49-15.961-35.838-17.919L.008-565.557v32.374l6.475,1.506c9.185,2.409,16.262,7.68,20.479,15.208,3.463,6.174,3.463,6.776,1.054,11.594l-2.409,5.12-12.8-.9-12.8-1.054v33.579H5.881c26.954,0,59.479,10.992,85.378,28.76,15.359,10.691,42.162,38.548,40.807,42.614-.3.753-6.776,4.066-14.3,7.228l-13.853,5.722L93.819-394.5C72.437-417.237,45.935-430.939,16.12-435c-6.475-.753-12.8-1.506-14-1.506C.46-436.511.008-433.349.008-420.7c0,17.768-1.355,16.112,14.3,18.069,18.672,2.409,41.108,14,53.907,27.706,3.915,4.216,7.077,8.131,7.077,8.733,0,1.054-10.239,10.39-19.123,17.618-3.614,2.71-3.614,2.71-11.745-4.969-9.637-9.035-23.49-15.961-35.687-17.919L.008-372.816v32.374l6.475,1.506c9.185,2.409,16.262,7.68,20.479,15.208,3.463,6.174,3.463,6.776,1.054,11.595l-2.409,5.12-12.8-.9-12.8-1.054v33.579H5.881c26.954,0,59.479,10.992,85.378,28.761,15.359,10.691,42.162,38.548,40.807,42.614-.3.753-6.776,4.066-14.3,7.228l-13.853,5.722L93.819-201.759C72.437-224.5,45.935-238.2,16.12-242.264c-6.475-.753-12.8-1.506-14-1.506-1.656,0-2.108,3.162-2.108,15.811,0,17.768-1.355,16.112,14.3,18.069,18.672,2.409,41.108,14,53.907,27.706,3.915,4.216,7.077,8.131,7.077,8.734,0,1.054-10.239,10.39-19.123,17.618-3.614,2.71-3.614,2.71-11.745-4.969-9.637-9.035-23.49-15.961-35.687-17.919L.008-180.076V-147.7L6.483-146.2c9.185,2.409,16.262,7.68,20.479,15.208,3.463,6.174,3.463,6.776,1.054,11.595l-2.409,5.12-12.8-.9L.008-116.23v33.579H5.881c26.954,0,59.479,10.992,85.378,28.76,15.359,10.691,42.162,38.548,40.807,42.614-.3.753-6.776,4.066-14.3,7.228L103.907,1.673,93.819-9.018c-21.382-22.737-47.884-36.44-77.7-40.506-6.475-.753-12.8-1.506-14-1.506C.46-51.03.008-47.868.008-35.219c0,17.768-1.355,16.112,14.3,18.069,18.672,2.409,41.108,14,53.907,27.706,3.915,4.216,7.077,8.131,7.077,8.734,0,1.054-10.239,10.39-19.123,17.618-3.614,2.71-3.614,2.71-11.745-4.969C34.792,22.9,20.939,15.978,8.742,14.02L.008,12.665V45.039l6.475,1.506c9.185,2.409,16.262,7.679,20.479,15.208,3.463,6.174,3.463,6.776,1.054,11.595l-2.409,5.12-12.8-.9L.008,76.51v33.579H5.881c26.954,0,59.479,10.992,85.378,28.761,15.359,10.691,42.162,38.548,40.807,42.614-.3.753-6.776,4.066-14.3,7.228l-13.853,5.722L93.819,183.722c-21.382-22.737-47.884-36.44-77.7-40.506-6.475-.753-12.8-1.506-14-1.506-1.656,0-2.108,3.162-2.108,15.811,0,17.768-1.355,16.112,14.3,18.069,18.672,2.409,41.108,14,53.907,27.706,3.915,4.216,7.077,8.131,7.077,8.734,0,1.054-10.239,10.39-19.123,17.618-3.614,2.71-3.614,2.71-11.745-4.969-9.637-9.035-23.49-15.961-35.687-17.919L.008,205.406V237.78l6.475,1.506c8.884,2.259,16.112,7.529,20.178,14.606,3.313,5.873,3.463,7.529,1.2,13.1-1.054,2.56.452,2.71,17.919,2.71H64.757l6.324-7.077c25.3-28.158,52.552-44.27,90.046-53.455,5.27-1.2,17.166-1.958,32.374-1.807,21.232,0,25.9.452,39.15,4.066,18.069,4.819,41.56,16.112,54.961,26.351,5.421,4.066,15.058,12.95,21.683,19.726l11.745,12.2h18.672c10.239,0,18.672-.3,18.672-.753a26.339,26.339,0,0,0-1.656-4.216c-1.355-2.861-1.054-4.818,1.355-9.486,10.992-21.382,42.162-22.135,54.058-1.355,3.313,5.873,3.463,7.529,1.2,13.1-1.054,2.56.452,2.71,17.919,2.71h18.973l6.324-7.077c25.3-28.158,52.552-44.27,90.046-53.455,5.27-1.2,17.166-1.958,32.374-1.807,21.232,0,25.9.452,39.15,4.066,18.069,4.819,41.56,16.112,54.961,26.351,5.421,4.066,15.058,12.95,21.683,19.726l11.745,12.2h18.672c10.239,0,18.672-.3,18.672-.753a26.34,26.34,0,0,0-1.656-4.216c-2.861-6.174,4.066-17.166,13.7-22.135,15.66-7.981,33.579-3.162,41.71,11.293,3.313,5.873,3.463,7.529,1.2,13.1-1.054,2.56.452,2.71,17.919,2.71h18.973l6.324-7.077c26.2-28.76,52.4-44.27,90.046-53.455,5.27-1.2,17.166-1.958,32.374-1.807,21.232,0,25.9.452,39.15,4.066,18.069,4.819,41.56,16.112,54.961,26.351,5.421,4.066,15.058,12.95,21.683,19.726L1092,269.7h18.822c17.317,0,18.822-.151,17.768-2.56-2.259-5.722-2.108-7.378,1.2-13.251,7.981-14,26.05-19.274,40.957-11.745,6.625,3.313,9.788,6.475,13.1,13.1,2.409,4.668,2.711,6.625,1.355,9.486a26.34,26.34,0,0,0-1.656,4.216c0,.452,8.432.753,18.822.753H1221.2l6.324-7.077c26.2-28.76,52.4-44.27,90.046-53.455,5.27-1.2,17.166-1.958,32.374-1.807,21.232,0,25.9.452,39.151,4.066,18.069,4.819,41.56,16.112,54.961,26.351,5.421,4.066,15.058,12.95,21.683,19.726l11.745,12.2h18.672c10.24,0,18.672-.3,18.672-.753a26.328,26.328,0,0,0-1.656-4.216c-1.355-2.861-1.054-4.818,1.355-9.486,10.992-21.382,42.162-22.135,54.058-1.355,3.313,5.873,3.463,7.529,1.2,13.1-1.054,2.56.452,2.71,17.919,2.71h18.973l6.324-7.077c26.2-28.76,52.4-44.27,90.046-53.455,5.27-1.2,17.166-1.958,32.374-1.807,21.232,0,25.9.452,39.15,4.066,18.07,4.819,41.56,16.112,54.961,26.351,5.421,4.066,15.058,12.95,21.683,19.726l11.745,12.2h18.822c17.317,0,18.822-.151,17.768-2.56-2.259-5.722-2.108-7.378,1.2-13.251,4.066-7.077,11.293-12.347,20.178-14.606l6.475-1.506V205.406l-8.583,1.355c-12.347,1.958-26.2,8.884-35.838,17.919-8.131,7.68-8.131,7.68-11.745,4.969-9.938-7.981-19.124-16.564-19.124-17.919,0-2.259,14.606-16.112,23.039-21.834a90.334,90.334,0,0,1,35.085-13.552c5.722-1.054,11.9-2.108,13.853-2.409,3.162-.6,3.313-1.2,3.313-16.413,0-18.371,1.656-17.317-20.027-13.552-28.459,4.969-48.787,15.51-70.17,36.591l-14.3,13.853-13.552-5.722c-7.378-3.313-13.853-6.625-14-7.378-.753-1.958,12.347-17.768,22.737-27.556,16.564-15.811,39-29.212,59.629-35.838,11.595-3.764,33.88-7.83,43.065-7.83h6.625V76.51l-12.8,1.054-12.8.9-2.409-5.12C1897,68.53,1897,67.927,1900.46,61.754c4.216-7.529,11.293-12.8,20.479-15.208l6.475-1.506V12.665l-8.583,1.355c-12.347,1.958-26.2,8.884-35.838,17.919-8.131,7.68-8.131,7.68-11.745,4.969-9.938-7.981-19.124-16.564-19.124-17.919,0-2.259,14.606-16.112,23.039-21.834A90.333,90.333,0,0,1,1910.248-16.4c5.722-1.054,11.9-2.108,13.853-2.409,3.162-.6,3.313-1.2,3.313-16.413,0-18.371,1.656-17.317-20.027-13.552-28.459,4.969-48.787,15.51-70.17,36.591l-14.3,13.853L1809.36-4.049c-7.378-3.313-13.853-6.625-14-7.378-.753-1.958,12.347-17.768,22.737-27.556,16.564-15.811,39-29.212,59.629-35.838,11.595-3.764,33.88-7.83,43.065-7.83h6.625V-116.23l-12.8,1.054-12.8.9-2.409-5.12c-2.409-4.819-2.409-5.421,1.054-11.595,4.216-7.529,11.293-12.8,20.479-15.208l6.475-1.506v-32.374l-8.583,1.355c-12.347,1.958-26.2,8.884-35.838,17.919-8.131,7.68-8.131,7.68-11.745,4.969-9.938-7.981-19.124-16.564-19.124-17.919,0-2.259,14.606-16.112,23.039-21.834a90.333,90.333,0,0,1,35.085-13.552c5.722-1.054,11.9-2.108,13.853-2.409,3.162-.6,3.313-1.2,3.313-16.413,0-18.371,1.656-17.317-20.027-13.552-28.459,4.969-48.787,15.51-70.17,36.591l-14.3,13.853-13.552-5.722c-7.378-3.313-13.853-6.625-14-7.378-.753-1.958,12.347-17.768,22.737-27.556,16.564-15.811,39-29.212,59.629-35.838,11.595-3.764,33.88-7.83,43.065-7.83h6.625v-33.579l-12.8,1.054-12.8.9-2.409-5.12c-2.409-4.819-2.409-5.421,1.054-11.595,4.216-7.529,11.293-12.8,20.479-15.208l6.475-1.506v-32.374l-8.583,1.355c-12.347,1.958-26.2,8.884-35.838,17.919-8.131,7.679-8.131,7.679-11.745,4.969-9.938-7.981-19.124-16.564-19.124-17.919,0-2.259,14.606-16.112,23.039-21.834a90.332,90.332,0,0,1,35.085-13.552c5.722-1.054,11.9-2.108,13.853-2.409,3.162-.6,3.313-1.2,3.313-16.413,0-18.371,1.656-17.317-20.027-13.552-28.459,4.969-48.787,15.51-70.17,36.591l-14.3,13.853-13.552-5.722c-7.378-3.313-13.853-6.625-14-7.378-.753-1.958,12.347-17.768,22.737-27.556,16.564-15.811,39-29.212,59.629-35.838,11.595-3.764,33.88-7.83,43.065-7.83h6.625v-33.579l-12.8,1.054-12.8.9-2.409-5.12c-2.409-4.818-2.409-5.421,1.054-11.594,4.216-7.529,11.293-12.8,20.479-15.208l6.475-1.506v-32.374l-8.583,1.355c-12.347,1.958-26.2,8.884-35.838,17.919-8.131,7.68-8.131,7.68-11.745,4.969-9.938-7.981-19.124-16.564-19.124-17.919,0-2.259,14.606-16.112,23.039-21.834a90.335,90.335,0,0,1,35.085-13.552c5.722-1.054,11.9-2.108,13.853-2.409,3.162-.6,3.313-1.2,3.313-16.413,0-18.371,1.656-17.317-20.027-13.552-28.459,4.969-48.787,15.509-70.17,36.59l-14.3,13.853-13.552-5.722c-7.378-3.313-13.853-6.625-14-7.378-.753-1.958,12.347-17.768,22.737-27.556,16.564-15.811,39-29.212,59.629-35.838,11.595-3.764,33.88-7.83,43.065-7.83h6.625v-32.676l-32.374-.3-32.374-.15,2.409,3.915c3.162,4.668,2.711,5.12-11.444,11.143-6.173,2.56-12.046,5.12-12.95,5.421-.9.452-6.324-4.066-11.9-9.938L1818.395-694H1650.65l-9.938,10.691-10.089,10.541-13.1-5.572c-7.228-3.012-13.7-6.023-14.456-6.776s-.3-2.71,1.054-4.969l2.409-3.614h-129.2l2.409,3.614c3.011,4.668,2.56,5.12-11.595,11.143-6.174,2.56-12.046,5.12-13.1,5.421-.9.452-6.324-3.915-11.9-9.787L1433.064-694H1265.169l-9.938,10.691-10.089,10.541-13.1-5.572c-7.228-3.012-13.7-6.023-14.455-6.776s-.3-2.71,1.054-4.969l2.409-3.614h-129.2l2.409,3.614c3.012,4.668,2.56,5.12-11.594,11.143-6.174,2.56-12.046,5.12-13.1,5.421-.9.452-6.324-3.915-11.9-9.787L1047.583-694h-167.9l-9.938,10.691-10.089,10.541-13.1-5.572c-7.228-3.012-13.7-6.023-14.455-6.776s-.3-2.71,1.054-4.969l2.409-3.614h-129.2l2.409,3.614c3.012,4.668,2.56,5.12-11.594,11.143-6.174,2.56-12.046,5.12-13.1,5.421-.9.452-6.324-3.915-11.9-9.787L662.1-694h-167.9l-9.938,10.691L474.18-672.768l-13.1-5.572c-7.228-3.012-13.7-6.023-14.456-6.776s-.3-2.71,1.054-4.969l2.409-3.614h-129.2l2.409,3.614c3.012,4.668,2.56,5.12-11.595,11.143-6.174,2.56-12.046,5.12-13.1,5.421-.9.452-6.324-3.915-11.9-9.787L276.621-694h-167.9l-9.938,10.691L88.7-672.768,75.6-678.34c-7.228-3.012-13.7-6.023-14.456-6.776s-.3-2.861,1.2-4.969L64.757-694l-32.374.15-32.374.3Zm222.856-10.842c13.1,4.517,29.513,14.907,38.1,24.093,3.915,4.216,7.077,8.131,7.077,8.734,0,1.054-10.239,10.39-19.123,17.618-3.614,2.711-3.614,2.711-11.444-4.668-15.359-14.3-28.309-19.274-48.486-18.22-15.359.753-28.76,6.625-40.656,17.768-9.336,8.884-7.83,9.185-22.436-4.066-9.938-8.734-9.938-9.185.9-19.425,10.842-10.541,26.8-19.425,42.614-23.942C181-693.548,210.366-692.344,222.864-688.128Zm385.481,0c13.1,4.517,29.513,14.907,38.1,24.093,3.915,4.216,7.077,8.131,7.077,8.734,0,1.054-10.239,10.39-19.123,17.618-3.614,2.711-3.614,2.711-11.444-4.668-15.359-14.3-28.309-19.274-48.486-18.22-15.359.753-28.76,6.625-40.656,17.768-9.336,8.884-7.83,9.185-22.436-4.066-9.938-8.734-9.938-9.185.9-19.425,10.842-10.541,26.8-19.425,42.614-23.942C566.485-693.548,595.848-692.344,608.346-688.128Zm385.481,0c13.1,4.517,29.513,14.907,38.1,24.093,3.915,4.216,7.077,8.131,7.077,8.734,0,1.054-10.239,10.39-19.123,17.618-3.614,2.711-3.614,2.711-11.444-4.668-15.359-14.3-28.309-19.274-48.486-18.22-15.359.753-28.76,6.625-40.656,17.768-9.336,8.884-7.83,9.185-22.436-4.066-9.938-8.734-9.938-9.185.9-19.425,10.842-10.541,26.8-19.425,42.614-23.942C951.966-693.548,981.329-692.344,993.827-688.128Zm385.481,0c13.1,4.517,29.514,14.907,38.1,24.093,3.915,4.216,7.077,8.131,7.077,8.734,0,1.054-10.239,10.39-19.124,17.618-3.614,2.711-3.614,2.711-11.444-4.668-15.359-14.3-28.309-19.274-48.486-18.22-15.359.753-28.761,6.625-40.656,17.768-9.336,8.884-7.83,9.185-22.436-4.066-9.938-8.734-9.938-9.185.9-19.425,10.842-10.541,26.8-19.425,42.614-23.942C1337.447-693.548,1366.81-692.344,1379.308-688.128Zm385.481,0a126.225,126.225,0,0,1,18.822,8.884c9.637,5.722,26.351,20.78,26.351,23.49,0,1.506-9.035,9.938-19.124,18.069-3.614,2.711-3.614,2.711-11.444-4.668-15.359-14.3-28.309-19.274-48.486-18.22-15.359.753-28.761,6.625-40.656,17.768-9.336,8.884-7.83,9.185-22.436-4.066-9.938-8.734-9.938-9.185.9-19.425,10.842-10.541,26.8-19.425,42.614-23.942C1722.928-693.548,1752.291-692.344,1764.789-688.128ZM408.98-659.216c23.189,3.162,46.679,12.649,67.76,27.1C492.1-621.421,518.9-593.564,517.547-589.5c-.3.753-6.776,4.066-14.3,7.228l-13.853,5.722L479.3-587.24c-22.587-23.942-49.089-37.193-81.614-40.807-39.15-4.216-77.247,10.39-106.007,40.957L281.44-576.4l-13.7-5.872c-7.68-3.162-14.154-6.625-14.3-7.378-.753-1.958,12.347-17.768,22.737-27.556C311.555-650.784,359.891-666.143,408.98-659.216Zm385.481,0c23.189,3.162,46.679,12.649,67.76,27.1,15.359,10.691,42.162,38.548,40.807,42.614-.3.753-6.776,4.066-14.3,7.228l-13.853,5.722L864.781-587.24c-28.911-30.568-70.019-45.927-108.417-40.656-30.417,4.216-53.3,15.51-75.59,37.494l-14.3,13.853-13.552-5.722c-7.378-3.313-13.853-6.625-14-7.378-.753-1.958,12.347-17.768,22.737-27.556C697.036-650.784,745.372-666.143,794.461-659.216Zm385.481,0c23.189,3.162,46.679,12.649,67.76,27.1,15.359,10.691,42.162,38.548,40.807,42.614-.3.753-6.776,4.066-14.3,7.228l-13.853,5.722-10.089-10.691c-28.911-30.568-70.019-45.927-108.417-40.656-30.417,4.216-53.3,15.51-75.59,37.494l-14.305,13.853-13.552-5.722c-7.378-3.313-13.853-6.625-14-7.378-.753-1.958,12.348-17.768,22.737-27.556C1082.517-650.784,1130.853-666.143,1179.942-659.216Zm385.481,0c23.189,3.162,46.679,12.649,67.76,27.1,15.359,10.691,42.162,38.548,40.807,42.614-.3.753-6.776,4.066-14.3,7.228l-13.853,5.722-10.089-10.691c-28.911-30.568-70.019-45.927-108.417-40.656-30.417,4.216-53.3,15.51-75.59,37.494l-14.305,13.853-13.552-5.722c-7.378-3.313-13.853-6.625-14-7.378-.753-1.958,12.348-17.768,22.737-27.556C1468-650.784,1516.334-666.143,1565.423-659.216Zm-1358.67,33.88c6.927,3.463,9.938,6.625,13.4,13.251,2.861,5.722,3.012,6.324.6,10.541l-2.409,4.668h-51.2l-2.409-4.668c-2.409-4.517-2.409-4.969,1.054-11.143A30.8,30.8,0,0,1,206.753-625.336Zm385.481,0c6.927,3.463,9.938,6.625,13.4,13.251,2.861,5.722,3.012,6.324.6,10.541l-2.409,4.668h-51.2l-2.409-4.668c-2.409-4.517-2.409-4.969,1.054-11.143A30.8,30.8,0,0,1,592.234-625.336Zm385.481,0c6.927,3.463,9.938,6.625,13.4,13.251,2.861,5.722,3.012,6.324.6,10.541l-2.409,4.668h-51.2l-2.409-4.668c-2.409-4.517-2.409-4.969,1.054-11.143A30.8,30.8,0,0,1,977.715-625.336Zm385.481,0c6.927,3.463,9.938,6.625,13.4,13.251,2.861,5.722,3.012,6.324.6,10.541l-2.409,4.668h-51.2l-2.409-4.668c-2.409-4.517-2.409-4.969,1.054-11.143A30.8,30.8,0,0,1,1363.2-625.336Zm385.481,0c6.927,3.463,9.938,6.625,13.4,13.251,2.861,5.722,3.012,6.324.6,10.541l-2.409,4.668h-51.2l-2.409-4.668c-2.409-4.517-2.409-4.969,1.054-11.143A30.8,30.8,0,0,1,1748.677-625.336ZM405.064-594.317c11.293,2.108,20.78,6.023,32.224,13.251,8.884,5.572,23.49,19.425,23.49,22.135,0,1.054-10.239,10.39-19.123,17.618-3.614,2.711-3.614,2.711-11.745-4.969-14.606-13.853-35.085-20.78-53-17.919-12.347,1.958-26.2,8.884-35.838,17.919-8.131,7.68-8.131,7.68-11.745,4.969-9.938-7.981-19.123-16.564-19.123-17.919,0-2.71,15.359-16.714,25.147-23.039,10.239-6.475,25-11.745,38.849-13.7C383.682-597.329,391.362-596.877,405.064-594.317Zm385.481,0c11.293,2.108,20.78,6.023,32.224,13.251,8.884,5.572,23.49,19.425,23.49,22.135,0,1.054-10.239,10.39-19.123,17.618-3.614,2.711-3.614,2.711-11.745-4.969-14.606-13.853-35.085-20.78-53-17.919-12.347,1.958-26.2,8.884-35.838,17.919-8.131,7.68-8.131,7.68-11.745,4.969-9.938-7.981-19.123-16.564-19.123-17.919,0-2.71,15.359-16.714,25.147-23.039,10.239-6.475,25-11.745,38.849-13.7C769.163-597.329,776.843-596.877,790.545-594.317Zm385.481,0c11.293,2.108,20.78,6.023,32.224,13.251,8.884,5.572,23.49,19.425,23.49,22.135,0,1.054-10.239,10.39-19.124,17.618-3.614,2.711-3.614,2.711-11.745-4.969-9.637-9.035-23.49-15.961-35.687-17.919-18.069-2.861-38.548,4.066-53.154,17.919-8.131,7.68-8.131,7.68-11.745,4.969-9.938-7.981-19.124-16.564-19.124-17.919,0-2.71,15.359-16.714,25.147-23.039,10.239-6.475,25-11.745,38.849-13.7C1154.644-597.329,1162.324-596.877,1176.027-594.317Zm385.481,0c11.293,2.108,20.78,6.023,32.224,13.251,8.884,5.572,23.49,19.425,23.49,22.135,0,1.054-10.239,10.39-19.123,17.618-3.614,2.711-3.614,2.711-11.745-4.969-14.606-13.853-35.085-20.78-53-17.919-12.347,1.958-26.2,8.884-35.838,17.919-8.131,7.68-8.131,7.68-11.745,4.969-9.938-7.981-19.124-16.564-19.124-17.919,0-2.71,15.359-16.714,25.147-23.039,10.239-6.475,25-11.745,38.849-13.7C1540.126-597.329,1547.805-596.877,1561.508-594.317ZM233.4-559.232c27.556,7.378,48.637,19.575,70.17,40.355,15.208,14.455,23.039,24.544,20.78,26.5-.753.753-6.475,3.463-12.649,6.174-6.174,2.56-12.046,5.12-13.1,5.421-.9.452-6.625-4.367-12.8-10.691-25.448-26.8-57.069-40.506-93.058-40.506s-67.76,13.7-93.058,40.355L88.7-480.028,75.6-485.6c-7.228-3.012-13.7-6.023-14.456-6.776-3.463-3.012,21.081-29.815,38.849-42.313,22.286-15.66,42.011-23.49,73.181-28.911,2.108-.452,13.251-.452,24.845-.151C214.583-563.3,222.262-562.244,233.4-559.232Zm385.481,0c27.556,7.378,48.637,19.575,70.17,40.355,15.208,14.455,23.039,24.544,20.78,26.5-.753.753-6.475,3.463-12.648,6.174-6.174,2.56-12.046,5.12-13.1,5.421-.9.452-6.625-4.367-12.8-10.691-25.448-26.8-57.069-40.506-93.058-40.506s-67.76,13.7-93.057,40.355L474.18-480.028l-13.1-5.571c-7.228-3.012-13.7-6.023-14.456-6.776-3.463-3.012,21.081-29.815,38.849-42.313,22.286-15.66,42.011-23.49,73.181-28.911,2.108-.452,13.251-.452,24.845-.151C600.064-563.3,607.743-562.244,618.886-559.232Zm385.481,0c27.556,7.378,48.637,19.575,70.17,40.355,15.208,14.455,23.039,24.544,20.78,26.5-.753.753-6.475,3.463-12.649,6.174-6.174,2.56-12.046,5.12-13.1,5.421-.9.452-6.625-4.367-12.8-10.691-25.448-26.8-57.069-40.506-93.058-40.506s-67.76,13.7-93.057,40.355l-10.992,11.594-13.1-5.571c-7.228-3.012-13.7-6.023-14.455-6.776-3.313-3.012,21.533-30.116,39-42.313,22.135-15.66,42.011-23.49,73.031-28.911,2.108-.452,13.251-.452,24.846-.151C985.545-563.3,993.224-562.244,1004.367-559.232Zm385.481,0c27.556,7.378,48.637,19.575,70.17,40.355,15.208,14.455,23.038,24.544,20.78,26.5-.753.753-6.475,3.463-12.649,6.174-6.174,2.56-12.046,5.12-13.1,5.421-.9.452-6.625-4.367-12.8-10.691-25.448-26.8-57.069-40.506-93.057-40.506s-67.76,13.7-93.058,40.355l-10.992,11.594-13.1-5.571c-7.228-3.012-13.7-6.023-14.455-6.776-3.313-3.012,21.533-30.116,39-42.313,22.135-15.66,42.012-23.49,73.031-28.911,2.108-.452,13.251-.452,24.845-.151C1371.026-563.3,1378.705-562.244,1389.848-559.232Zm385.481,0c27.556,7.378,48.637,19.575,70.17,40.355,15.208,14.455,23.038,24.544,20.78,26.5-.753.753-6.475,3.463-12.649,6.174-6.173,2.56-12.046,5.12-12.95,5.421-.9.452-6.625-4.517-12.8-10.842-26.05-26.8-57.22-40.355-93.208-40.355s-67.76,13.7-93.057,40.355l-10.992,11.594-13.1-5.571c-7.228-3.012-13.7-6.023-14.456-6.776-3.313-3.012,21.533-30.116,39-42.313,22.135-15.66,42.011-23.49,73.031-28.911,2.108-.452,13.251-.452,24.845-.151C1756.507-563.3,1764.186-562.244,1775.329-559.232ZM400.4-528.364c6.475,3.162,10.691,7.981,13.552,14.907,1.506,3.614,1.506,5.12-.3,8.583l-2.108,4.066-26.05.15-26.05.151-2.259-4.668c-2.108-4.517-1.957-5.27,1.355-11.293C366.968-531.375,384.586-536.495,400.4-528.364Zm385.481,0c6.475,3.162,10.691,7.981,13.552,14.907,1.506,3.614,1.506,5.12-.3,8.583l-2.108,4.066-26.05.15-26.05.151-2.259-4.668c-2.108-4.517-1.958-5.27,1.355-11.293C752.449-531.375,770.067-536.495,785.878-528.364Zm385.481,0c6.475,3.162,10.691,7.981,13.552,14.907,1.506,3.614,1.506,5.12-.3,8.583l-2.108,4.066-26.05.15-26.05.151-2.259-4.668c-2.108-4.517-1.958-5.27,1.355-11.293C1137.93-531.375,1155.548-536.495,1171.359-528.364Zm385.481,0c6.475,3.162,10.691,7.981,13.552,14.907,1.506,3.614,1.506,5.12-.3,8.583l-2.108,4.066-26.05.15-26.05.151-2.259-4.668c-2.108-4.517-1.958-5.27,1.355-11.293C1523.411-531.375,1541.029-536.495,1556.84-528.364ZM222.864-495.387c13.1,4.517,29.513,14.907,38.1,24.093,3.915,4.216,7.077,8.131,7.077,8.734,0,1.054-10.239,10.39-19.123,17.618-3.614,2.71-3.614,2.71-11.444-4.668-15.359-14.3-28.309-19.274-48.486-18.22-15.359.753-28.76,6.625-40.656,17.768-9.336,8.884-7.83,9.185-22.436-4.066-9.938-8.733-9.938-9.185.9-19.424,10.842-10.54,26.8-19.425,42.614-23.942C181-500.808,210.366-499.6,222.864-495.387Zm385.481,0c13.1,4.517,29.513,14.907,38.1,24.093,3.915,4.216,7.077,8.131,7.077,8.734,0,1.054-10.239,10.39-19.123,17.618-3.614,2.71-3.614,2.71-11.444-4.668-15.359-14.3-28.309-19.274-48.486-18.22-15.359.753-28.76,6.625-40.656,17.768-9.336,8.884-7.83,9.185-22.436-4.066-9.938-8.733-9.938-9.185.9-19.424,10.842-10.54,26.8-19.425,42.614-23.942C566.485-500.808,595.848-499.6,608.346-495.387Zm385.481,0c13.1,4.517,29.513,14.907,38.1,24.093,3.915,4.216,7.077,8.131,7.077,8.734,0,1.054-10.239,10.39-19.123,17.618-3.614,2.71-3.614,2.71-11.444-4.668-15.359-14.3-28.309-19.274-48.486-18.22-15.359.753-28.76,6.625-40.656,17.768-9.336,8.884-7.83,9.185-22.436-4.066-9.938-8.733-9.938-9.185.9-19.424,10.842-10.54,26.8-19.425,42.614-23.942C951.966-500.808,981.329-499.6,993.827-495.387Zm385.481,0c13.1,4.517,29.514,14.907,38.1,24.093,3.915,4.216,7.077,8.131,7.077,8.734,0,1.054-10.239,10.39-19.124,17.618-3.614,2.71-3.614,2.71-11.444-4.668-15.359-14.3-28.309-19.274-48.486-18.22-15.359.753-28.761,6.625-40.656,17.768-9.336,8.884-7.83,9.185-22.436-4.066-9.938-8.733-9.938-9.185.9-19.424,10.842-10.54,26.8-19.425,42.614-23.942C1337.447-500.808,1366.81-499.6,1379.308-495.387Zm385.481,0a126.2,126.2,0,0,1,18.822,8.884c9.637,5.722,26.351,20.78,26.351,23.49,0,1.506-9.035,9.938-19.124,18.069-3.614,2.71-3.614,2.71-11.444-4.668-15.359-14.3-28.309-19.274-48.486-18.22-15.359.753-28.761,6.625-40.656,17.768-9.336,8.884-7.83,9.185-22.436-4.066-9.938-8.733-9.938-9.185.9-19.424,10.842-10.54,26.8-19.425,42.614-23.942C1722.928-500.808,1752.291-499.6,1764.789-495.387ZM408.98-466.476c23.189,3.162,46.679,12.649,67.76,27.1,15.359,10.691,42.162,38.548,40.807,42.614-.3.753-6.776,4.066-14.3,7.228l-13.853,5.722L479.3-394.5c-22.587-23.942-49.089-37.193-81.614-40.807-39.15-4.216-77.247,10.39-106.007,40.957L281.44-383.658l-13.7-5.873c-7.68-3.162-14.154-6.625-14.3-7.378-.753-1.958,12.347-17.768,22.737-27.556C311.555-458.043,359.891-473.4,408.98-466.476Zm385.481,0c23.189,3.162,46.679,12.649,67.76,27.1,15.359,10.691,42.162,38.548,40.807,42.614-.3.753-6.776,4.066-14.3,7.228l-13.853,5.722L864.781-394.5c-28.911-30.567-70.019-45.926-108.417-40.656-30.417,4.216-53.3,15.51-75.59,37.494l-14.3,13.853-13.552-5.722c-7.378-3.313-13.853-6.625-14-7.378-.753-1.958,12.347-17.768,22.737-27.556C697.036-458.043,745.372-473.4,794.461-466.476Zm385.481,0c23.189,3.162,46.679,12.649,67.76,27.1,15.359,10.691,42.162,38.548,40.807,42.614-.3.753-6.776,4.066-14.3,7.228l-13.853,5.722L1250.262-394.5c-28.911-30.567-70.019-45.926-108.417-40.656-30.417,4.216-53.3,15.51-75.59,37.494l-14.305,13.853L1038.4-389.53c-7.378-3.313-13.853-6.625-14-7.378-.753-1.958,12.348-17.768,22.737-27.556C1082.517-458.043,1130.853-473.4,1179.942-466.476Zm385.481,0c23.189,3.162,46.679,12.649,67.76,27.1,15.359,10.691,42.162,38.548,40.807,42.614-.3.753-6.776,4.066-14.3,7.228l-13.853,5.722L1635.743-394.5c-28.911-30.567-70.019-45.926-108.417-40.656-30.417,4.216-53.3,15.51-75.59,37.494l-14.305,13.853-13.552-5.722c-7.378-3.313-13.853-6.625-14-7.378-.753-1.958,12.348-17.768,22.737-27.556C1468-458.043,1516.334-473.4,1565.423-466.476ZM206.753-432.6c6.927,3.463,9.938,6.625,13.4,13.251,2.861,5.722,3.012,6.324.6,10.541l-2.409,4.668h-51.2l-2.409-4.668c-2.409-4.517-2.409-4.969,1.054-11.143A30.8,30.8,0,0,1,206.753-432.6Zm385.481,0c6.927,3.463,9.938,6.625,13.4,13.251,2.861,5.722,3.012,6.324.6,10.541l-2.409,4.668h-51.2l-2.409-4.668c-2.409-4.517-2.409-4.969,1.054-11.143A30.8,30.8,0,0,1,592.234-432.6Zm385.481,0c6.927,3.463,9.938,6.625,13.4,13.251,2.861,5.722,3.012,6.324.6,10.541l-2.409,4.668h-51.2L935.7-408.8c-2.409-4.517-2.409-4.969,1.054-11.143A30.8,30.8,0,0,1,977.715-432.6Zm385.481,0c6.927,3.463,9.938,6.625,13.4,13.251,2.861,5.722,3.012,6.324.6,10.541l-2.409,4.668h-51.2l-2.409-4.668c-2.409-4.517-2.409-4.969,1.054-11.143A30.8,30.8,0,0,1,1363.2-432.6Zm385.481,0c6.927,3.463,9.938,6.625,13.4,13.251,2.861,5.722,3.012,6.324.6,10.541l-2.409,4.668h-51.2l-2.409-4.668c-2.409-4.517-2.409-4.969,1.054-11.143A30.8,30.8,0,0,1,1748.677-432.6ZM405.064-401.577c11.293,2.108,20.78,6.023,32.224,13.251,8.884,5.571,23.49,19.425,23.49,22.135,0,1.054-10.239,10.39-19.123,17.618-3.614,2.71-3.614,2.71-11.745-4.969-25.749-24.394-63.092-24.394-88.841,0-8.131,7.679-8.131,7.679-11.745,4.969-9.938-7.981-19.123-16.564-19.123-17.919,0-2.71,15.359-16.714,25.147-23.039,10.239-6.475,25-11.745,38.849-13.7C383.682-404.588,391.362-404.136,405.064-401.577Zm385.481,0c11.293,2.108,20.78,6.023,32.224,13.251,8.884,5.571,23.49,19.425,23.49,22.135,0,1.054-10.239,10.39-19.123,17.618-3.614,2.71-3.614,2.71-11.745-4.969-25.749-24.394-63.092-24.394-88.841,0-8.131,7.679-8.131,7.679-11.745,4.969-9.938-7.981-19.123-16.564-19.123-17.919,0-2.71,15.359-16.714,25.147-23.039,10.239-6.475,25-11.745,38.849-13.7C769.163-404.588,776.843-404.136,790.545-401.577Zm385.481,0c11.293,2.108,20.78,6.023,32.224,13.251,8.884,5.571,23.49,19.425,23.49,22.135,0,1.054-10.239,10.39-19.124,17.618-3.614,2.71-3.614,2.71-11.745-4.969-25.749-24.394-63.092-24.394-88.841,0-8.131,7.679-8.131,7.679-11.745,4.969-9.938-7.981-19.124-16.564-19.124-17.919,0-2.71,15.359-16.714,25.147-23.039,10.239-6.475,25-11.745,38.849-13.7C1154.644-404.588,1162.324-404.136,1176.027-401.577Zm385.481,0c11.293,2.108,20.78,6.023,32.224,13.251,8.884,5.571,23.49,19.425,23.49,22.135,0,1.054-10.239,10.39-19.123,17.618-3.614,2.71-3.614,2.71-11.745-4.969-25.749-24.394-63.092-24.394-88.841,0-8.131,7.679-8.131,7.679-11.745,4.969-9.938-7.981-19.124-16.564-19.124-17.919,0-2.71,15.359-16.714,25.147-23.039,10.239-6.475,25-11.745,38.849-13.7C1540.126-404.588,1547.805-404.136,1561.508-401.577ZM233.4-366.492c27.556,7.378,48.637,19.575,70.17,40.355,15.208,14.456,23.039,24.544,20.78,26.5-.753.753-6.475,3.463-12.649,6.174-6.174,2.56-12.046,5.12-13.1,5.421-.9.452-6.625-4.367-12.8-10.691-25.448-26.8-57.069-40.506-93.058-40.506s-67.76,13.7-93.058,40.355L88.7-287.287l-13.1-5.571c-7.228-3.012-13.7-6.023-14.456-6.776-3.463-3.012,21.081-29.814,38.849-42.313,22.286-15.66,42.011-23.49,73.181-28.911,2.108-.452,13.251-.452,24.845-.151C214.583-370.557,222.262-369.5,233.4-366.492Zm385.481,0c27.556,7.378,48.637,19.575,70.17,40.355,15.208,14.456,23.039,24.544,20.78,26.5-.753.753-6.475,3.463-12.648,6.174-6.174,2.56-12.046,5.12-13.1,5.421-.9.452-6.625-4.367-12.8-10.691-25.448-26.8-57.069-40.506-93.058-40.506s-67.76,13.7-93.057,40.355L474.18-287.287l-13.1-5.571c-7.228-3.012-13.7-6.023-14.456-6.776-3.463-3.012,21.081-29.814,38.849-42.313,22.286-15.66,42.011-23.49,73.181-28.911,2.108-.452,13.251-.452,24.845-.151C600.064-370.557,607.743-369.5,618.886-366.492Zm385.481,0c27.556,7.378,48.637,19.575,70.17,40.355,15.208,14.456,23.039,24.544,20.78,26.5-.753.753-6.475,3.463-12.649,6.174-6.174,2.56-12.046,5.12-13.1,5.421-.9.452-6.625-4.367-12.8-10.691-25.448-26.8-57.069-40.506-93.058-40.506s-67.76,13.7-93.057,40.355l-10.992,11.595-13.1-5.571c-7.228-3.012-13.7-6.023-14.455-6.776-3.313-3.012,21.533-30.116,39-42.313,22.135-15.66,42.011-23.49,73.031-28.911,2.108-.452,13.251-.452,24.846-.151C985.545-370.557,993.224-369.5,1004.367-366.492Zm385.481,0c27.556,7.378,48.637,19.575,70.17,40.355,15.208,14.456,23.038,24.544,20.78,26.5-.753.753-6.475,3.463-12.649,6.174-6.174,2.56-12.046,5.12-13.1,5.421-.9.452-6.625-4.367-12.8-10.691-25.448-26.8-57.069-40.506-93.057-40.506s-67.76,13.7-93.058,40.355l-10.992,11.595-13.1-5.571c-7.228-3.012-13.7-6.023-14.455-6.776-3.313-3.012,21.533-30.116,39-42.313,22.135-15.66,42.012-23.49,73.031-28.911,2.108-.452,13.251-.452,24.845-.151C1371.026-370.557,1378.705-369.5,1389.848-366.492Zm385.481,0c27.556,7.378,48.637,19.575,70.17,40.355,15.208,14.456,23.038,24.544,20.78,26.5-.753.753-6.475,3.463-12.649,6.174-6.173,2.56-12.046,5.12-12.95,5.421-.9.452-6.625-4.517-12.8-10.842-26.05-26.8-57.22-40.355-93.208-40.355s-67.76,13.7-93.057,40.355l-10.992,11.595-13.1-5.571c-7.228-3.012-13.7-6.023-14.456-6.776-3.313-3.012,21.533-30.116,39-42.313,22.135-15.66,42.011-23.49,73.031-28.911,2.108-.452,13.251-.452,24.845-.151C1756.507-370.557,1764.186-369.5,1775.329-366.492ZM400.4-335.623c6.475,3.162,10.691,7.981,13.552,14.907,1.506,3.614,1.506,5.12-.3,8.583l-2.108,4.066-26.05.151-26.05.151-2.259-4.668c-2.108-4.517-1.957-5.27,1.355-11.293C366.968-338.635,384.586-343.754,400.4-335.623Zm385.481,0c6.475,3.162,10.691,7.981,13.552,14.907,1.506,3.614,1.506,5.12-.3,8.583l-2.108,4.066-26.05.151-26.05.151-2.259-4.668c-2.108-4.517-1.958-5.27,1.355-11.293C752.449-338.635,770.067-343.754,785.878-335.623Zm385.481,0c6.475,3.162,10.691,7.981,13.552,14.907,1.506,3.614,1.506,5.12-.3,8.583l-2.108,4.066-26.05.151-26.05.151-2.259-4.668c-2.108-4.517-1.958-5.27,1.355-11.293C1137.93-338.635,1155.548-343.754,1171.359-335.623Zm385.481,0c6.475,3.162,10.691,7.981,13.552,14.907,1.506,3.614,1.506,5.12-.3,8.583l-2.108,4.066-26.05.151-26.05.151-2.259-4.668c-2.108-4.517-1.958-5.27,1.355-11.293C1523.411-338.635,1541.029-343.754,1556.84-335.623ZM222.864-302.646c13.1,4.517,29.513,14.907,38.1,24.093,3.915,4.216,7.077,8.131,7.077,8.734,0,1.054-10.239,10.39-19.123,17.618-3.614,2.71-3.614,2.71-11.444-4.668-15.359-14.3-28.309-19.274-48.486-18.22-15.359.753-28.76,6.625-40.656,17.768-9.336,8.884-7.83,9.185-22.436-4.066-9.938-8.734-9.938-9.185.9-19.425,10.842-10.54,26.8-19.425,42.614-23.942C181-308.067,210.366-306.863,222.864-302.646Zm385.481,0c13.1,4.517,29.513,14.907,38.1,24.093,3.915,4.216,7.077,8.131,7.077,8.734,0,1.054-10.239,10.39-19.123,17.618-3.614,2.71-3.614,2.71-11.444-4.668-15.359-14.3-28.309-19.274-48.486-18.22-15.359.753-28.76,6.625-40.656,17.768-9.336,8.884-7.83,9.185-22.436-4.066-9.938-8.734-9.938-9.185.9-19.425,10.842-10.54,26.8-19.425,42.614-23.942C566.485-308.067,595.848-306.863,608.346-302.646Zm385.481,0c13.1,4.517,29.513,14.907,38.1,24.093,3.915,4.216,7.077,8.131,7.077,8.734,0,1.054-10.239,10.39-19.123,17.618-3.614,2.71-3.614,2.71-11.444-4.668-15.359-14.3-28.309-19.274-48.486-18.22-15.359.753-28.76,6.625-40.656,17.768-9.336,8.884-7.83,9.185-22.436-4.066-9.938-8.734-9.938-9.185.9-19.425,10.842-10.54,26.8-19.425,42.614-23.942C951.966-308.067,981.329-306.863,993.827-302.646Zm385.481,0c13.1,4.517,29.514,14.907,38.1,24.093,3.915,4.216,7.077,8.131,7.077,8.734,0,1.054-10.239,10.39-19.124,17.618-3.614,2.71-3.614,2.71-11.444-4.668-15.359-14.3-28.309-19.274-48.486-18.22-15.359.753-28.761,6.625-40.656,17.768-9.336,8.884-7.83,9.185-22.436-4.066-9.938-8.734-9.938-9.185.9-19.425,10.842-10.54,26.8-19.425,42.614-23.942C1337.447-308.067,1366.81-306.863,1379.308-302.646Zm385.481,0a126.216,126.216,0,0,1,18.822,8.884c9.637,5.722,26.351,20.78,26.351,23.49,0,1.506-9.035,9.938-19.124,18.069-3.614,2.71-3.614,2.71-11.444-4.668-15.359-14.3-28.309-19.274-48.486-18.22-15.359.753-28.761,6.625-40.656,17.768-9.336,8.884-7.83,9.185-22.436-4.066-9.938-8.734-9.938-9.185.9-19.425,10.842-10.54,26.8-19.425,42.614-23.942C1722.928-308.067,1752.291-306.863,1764.789-302.646ZM408.98-273.735c23.189,3.162,46.679,12.649,67.76,27.1,15.359,10.691,42.162,38.548,40.807,42.614-.3.753-6.776,4.066-14.3,7.228l-13.853,5.722L479.3-201.759c-22.587-23.942-49.089-37.193-81.614-40.807-39.15-4.216-77.247,10.39-106.007,40.957L281.44-190.917l-13.7-5.873c-7.68-3.162-14.154-6.625-14.3-7.378-.753-1.958,12.347-17.768,22.737-27.556C311.555-265.3,359.891-280.662,408.98-273.735Zm385.481,0c23.189,3.162,46.679,12.649,67.76,27.1,15.359,10.691,42.162,38.548,40.807,42.614-.3.753-6.776,4.066-14.3,7.228l-13.853,5.722-10.089-10.691c-28.911-30.567-70.019-45.926-108.417-40.656-30.417,4.216-53.3,15.51-75.59,37.494l-14.3,13.853-13.552-5.722c-7.378-3.313-13.853-6.625-14-7.378-.753-1.958,12.347-17.768,22.737-27.556C697.036-265.3,745.372-280.662,794.461-273.735Zm385.481,0c23.189,3.162,46.679,12.649,67.76,27.1,15.359,10.691,42.162,38.548,40.807,42.614-.3.753-6.776,4.066-14.3,7.228l-13.853,5.722-10.089-10.691c-28.911-30.567-70.019-45.926-108.417-40.656-30.417,4.216-53.3,15.51-75.59,37.494l-14.305,13.853L1038.4-196.79c-7.378-3.313-13.853-6.625-14-7.378-.753-1.958,12.348-17.768,22.737-27.556C1082.517-265.3,1130.853-280.662,1179.942-273.735Zm385.481,0c23.189,3.162,46.679,12.649,67.76,27.1,15.359,10.691,42.162,38.548,40.807,42.614-.3.753-6.776,4.066-14.3,7.228l-13.853,5.722-10.089-10.691c-28.911-30.567-70.019-45.926-108.417-40.656-30.417,4.216-53.3,15.51-75.59,37.494l-14.305,13.853-13.552-5.722c-7.378-3.313-13.853-6.625-14-7.378-.753-1.958,12.348-17.768,22.737-27.556C1468-265.3,1516.334-280.662,1565.423-273.735Zm-1358.67,33.88c6.927,3.463,9.938,6.625,13.4,13.251,2.861,5.722,3.012,6.324.6,10.54l-2.409,4.668h-51.2l-2.409-4.668c-2.409-4.517-2.409-4.969,1.054-11.143A30.8,30.8,0,0,1,206.753-239.855Zm385.481,0c6.927,3.463,9.938,6.625,13.4,13.251,2.861,5.722,3.012,6.324.6,10.54l-2.409,4.668h-51.2l-2.409-4.668c-2.409-4.517-2.409-4.969,1.054-11.143A30.8,30.8,0,0,1,592.234-239.855Zm385.481,0c6.927,3.463,9.938,6.625,13.4,13.251,2.861,5.722,3.012,6.324.6,10.54l-2.409,4.668h-51.2l-2.409-4.668c-2.409-4.517-2.409-4.969,1.054-11.143A30.8,30.8,0,0,1,977.715-239.855Zm385.481,0c6.927,3.463,9.938,6.625,13.4,13.251,2.861,5.722,3.012,6.324.6,10.54l-2.409,4.668h-51.2l-2.409-4.668c-2.409-4.517-2.409-4.969,1.054-11.143A30.8,30.8,0,0,1,1363.2-239.855Zm385.481,0c6.927,3.463,9.938,6.625,13.4,13.251,2.861,5.722,3.012,6.324.6,10.54l-2.409,4.668h-51.2l-2.409-4.668c-2.409-4.517-2.409-4.969,1.054-11.143A30.8,30.8,0,0,1,1748.677-239.855ZM405.064-208.836c11.293,2.108,20.78,6.023,32.224,13.251,8.884,5.571,23.49,19.425,23.49,22.135,0,1.054-10.239,10.39-19.123,17.618-3.614,2.71-3.614,2.71-11.745-4.969-25.749-24.394-63.092-24.394-88.841,0-8.131,7.68-8.131,7.68-11.745,4.969-9.938-7.981-19.123-16.564-19.123-17.919,0-2.71,15.359-16.714,25.147-23.039,10.239-6.475,25-11.745,38.849-13.7C383.682-211.848,391.362-211.4,405.064-208.836Zm385.481,0c11.293,2.108,20.78,6.023,32.224,13.251,8.884,5.571,23.49,19.425,23.49,22.135,0,1.054-10.239,10.39-19.123,17.618-3.614,2.71-3.614,2.71-11.745-4.969-25.749-24.394-63.092-24.394-88.841,0-8.131,7.68-8.131,7.68-11.745,4.969-9.938-7.981-19.123-16.564-19.123-17.919,0-2.71,15.359-16.714,25.147-23.039,10.239-6.475,25-11.745,38.849-13.7C769.163-211.848,776.843-211.4,790.545-208.836Zm385.481,0c11.293,2.108,20.78,6.023,32.224,13.251,8.884,5.571,23.49,19.425,23.49,22.135,0,1.054-10.239,10.39-19.124,17.618-3.614,2.71-3.614,2.71-11.745-4.969-25.749-24.394-63.092-24.394-88.841,0-8.131,7.68-8.131,7.68-11.745,4.969-9.938-7.981-19.124-16.564-19.124-17.919,0-2.71,15.359-16.714,25.147-23.039,10.239-6.475,25-11.745,38.849-13.7C1154.644-211.848,1162.324-211.4,1176.027-208.836Zm385.481,0c11.293,2.108,20.78,6.023,32.224,13.251,8.884,5.571,23.49,19.425,23.49,22.135,0,1.054-10.239,10.39-19.123,17.618-3.614,2.71-3.614,2.71-11.745-4.969-25.749-24.394-63.092-24.394-88.841,0-8.131,7.68-8.131,7.68-11.745,4.969-9.938-7.981-19.124-16.564-19.124-17.919,0-2.71,15.359-16.714,25.147-23.039,10.239-6.475,25-11.745,38.849-13.7C1540.126-211.848,1547.805-211.4,1561.508-208.836ZM233.4-173.751c27.556,7.378,48.637,19.575,70.17,40.355,15.208,14.456,23.039,24.544,20.78,26.5-.753.753-6.475,3.463-12.649,6.174-6.174,2.56-12.046,5.12-13.1,5.421-.9.452-6.625-4.367-12.8-10.691-25.448-26.8-57.069-40.506-93.058-40.506s-67.76,13.7-93.058,40.355L88.7-94.547l-13.1-5.571c-7.228-3.012-13.7-6.023-14.456-6.776-3.463-3.012,21.081-29.815,38.849-42.313,22.286-15.66,42.011-23.49,73.181-28.911,2.108-.452,13.251-.452,24.845-.151C214.583-177.817,222.262-176.763,233.4-173.751Zm385.481,0c27.556,7.378,48.637,19.575,70.17,40.355,15.208,14.456,23.039,24.544,20.78,26.5-.753.753-6.475,3.463-12.648,6.174-6.174,2.56-12.046,5.12-13.1,5.421-.9.452-6.625-4.367-12.8-10.691-25.448-26.8-57.069-40.506-93.058-40.506s-67.76,13.7-93.057,40.355L474.18-94.547l-13.1-5.571c-7.228-3.012-13.7-6.023-14.456-6.776-3.463-3.012,21.081-29.815,38.849-42.313,22.286-15.66,42.011-23.49,73.181-28.911,2.108-.452,13.251-.452,24.845-.151C600.064-177.817,607.743-176.763,618.886-173.751Zm385.481,0c27.556,7.378,48.637,19.575,70.17,40.355,15.208,14.456,23.039,24.544,20.78,26.5-.753.753-6.475,3.463-12.649,6.174-6.174,2.56-12.046,5.12-13.1,5.421-.9.452-6.625-4.367-12.8-10.691-25.448-26.8-57.069-40.506-93.058-40.506s-67.76,13.7-93.057,40.355L859.661-94.547l-13.1-5.571c-7.228-3.012-13.7-6.023-14.455-6.776-3.313-3.012,21.533-30.116,39-42.313,22.135-15.66,42.011-23.49,73.031-28.911,2.108-.452,13.251-.452,24.846-.151C985.545-177.817,993.224-176.763,1004.367-173.751Zm385.481,0c27.556,7.378,48.637,19.575,70.17,40.355,15.208,14.456,23.038,24.544,20.78,26.5-.753.753-6.475,3.463-12.649,6.174-6.174,2.56-12.046,5.12-13.1,5.421-.9.452-6.625-4.367-12.8-10.691-25.448-26.8-57.069-40.506-93.057-40.506s-67.76,13.7-93.058,40.355l-10.992,11.595-13.1-5.571c-7.228-3.012-13.7-6.023-14.455-6.776-3.313-3.012,21.533-30.116,39-42.313,22.135-15.66,42.012-23.49,73.031-28.911,2.108-.452,13.251-.452,24.845-.151C1371.026-177.817,1378.705-176.763,1389.848-173.751Zm385.481,0c27.556,7.378,48.637,19.575,70.17,40.355,15.208,14.456,23.038,24.544,20.78,26.5-.753.753-6.475,3.463-12.649,6.174-6.173,2.56-12.046,5.12-12.95,5.421-.9.452-6.625-4.517-12.8-10.842-26.05-26.8-57.22-40.355-93.208-40.355s-67.76,13.7-93.057,40.355l-10.992,11.595-13.1-5.571c-7.228-3.012-13.7-6.023-14.456-6.776-3.313-3.012,21.533-30.116,39-42.313,22.135-15.66,42.011-23.49,73.031-28.911,2.108-.452,13.251-.452,24.845-.151C1756.507-177.817,1764.186-176.763,1775.329-173.751ZM400.4-142.883c6.475,3.162,10.691,7.981,13.552,14.907,1.506,3.614,1.506,5.12-.3,8.583l-2.108,4.066-26.05.151-26.05.151-2.259-4.668c-2.108-4.517-1.957-5.27,1.355-11.293C366.968-145.894,384.586-151.014,400.4-142.883Zm385.481,0c6.475,3.162,10.691,7.981,13.552,14.907,1.506,3.614,1.506,5.12-.3,8.583l-2.108,4.066-26.05.151-26.05.151-2.259-4.668c-2.108-4.517-1.958-5.27,1.355-11.293C752.449-145.894,770.067-151.014,785.878-142.883Zm385.481,0c6.475,3.162,10.691,7.981,13.552,14.907,1.506,3.614,1.506,5.12-.3,8.583l-2.108,4.066-26.05.151-26.05.151-2.259-4.668c-2.108-4.517-1.958-5.27,1.355-11.293C1137.93-145.894,1155.548-151.014,1171.359-142.883Zm385.481,0c6.475,3.162,10.691,7.981,13.552,14.907,1.506,3.614,1.506,5.12-.3,8.583l-2.108,4.066-26.05.151-26.05.151-2.259-4.668c-2.108-4.517-1.958-5.27,1.355-11.293C1523.411-145.894,1541.029-151.014,1556.84-142.883ZM222.864-109.906c13.1,4.517,29.513,14.907,38.1,24.093,3.915,4.216,7.077,8.131,7.077,8.734,0,1.054-10.239,10.39-19.123,17.618-3.614,2.71-3.614,2.71-11.444-4.668-15.359-14.3-28.309-19.274-48.486-18.22-15.359.753-28.76,6.625-40.656,17.768-9.336,8.884-7.83,9.185-22.436-4.066-9.938-8.734-9.938-9.185.9-19.425,10.842-10.54,26.8-19.425,42.614-23.942C181-115.327,210.366-114.122,222.864-109.906Zm385.481,0c13.1,4.517,29.513,14.907,38.1,24.093,3.915,4.216,7.077,8.131,7.077,8.734,0,1.054-10.239,10.39-19.123,17.618-3.614,2.71-3.614,2.71-11.444-4.668-15.359-14.3-28.309-19.274-48.486-18.22-15.359.753-28.76,6.625-40.656,17.768-9.336,8.884-7.83,9.185-22.436-4.066-9.938-8.734-9.938-9.185.9-19.425,10.842-10.54,26.8-19.425,42.614-23.942C566.485-115.327,595.848-114.122,608.346-109.906Zm385.481,0c13.1,4.517,29.513,14.907,38.1,24.093,3.915,4.216,7.077,8.131,7.077,8.734,0,1.054-10.239,10.39-19.123,17.618-3.614,2.71-3.614,2.71-11.444-4.668-15.359-14.3-28.309-19.274-48.486-18.22-15.359.753-28.76,6.625-40.656,17.768-9.336,8.884-7.83,9.185-22.436-4.066-9.938-8.734-9.938-9.185.9-19.425,10.842-10.54,26.8-19.425,42.614-23.942C951.966-115.327,981.329-114.122,993.827-109.906Zm385.481,0c13.1,4.517,29.514,14.907,38.1,24.093,3.915,4.216,7.077,8.131,7.077,8.734,0,1.054-10.239,10.39-19.124,17.618-3.614,2.71-3.614,2.71-11.444-4.668-15.359-14.3-28.309-19.274-48.486-18.22-15.359.753-28.761,6.625-40.656,17.768-9.336,8.884-7.83,9.185-22.436-4.066-9.938-8.734-9.938-9.185.9-19.425,10.842-10.54,26.8-19.425,42.614-23.942C1337.447-115.327,1366.81-114.122,1379.308-109.906Zm385.481,0a126.219,126.219,0,0,1,18.822,8.884c9.637,5.722,26.351,20.78,26.351,23.49,0,1.506-9.035,9.938-19.124,18.069-3.614,2.71-3.614,2.71-11.444-4.668-15.359-14.3-28.309-19.274-48.486-18.22-15.359.753-28.761,6.625-40.656,17.768-9.336,8.884-7.83,9.185-22.436-4.066-9.938-8.734-9.938-9.185.9-19.425,10.842-10.54,26.8-19.425,42.614-23.942C1722.928-115.327,1752.291-114.122,1764.789-109.906ZM408.98-80.995c23.189,3.162,46.679,12.649,67.76,27.1C492.1-43.2,518.9-15.343,517.547-11.277c-.3.753-6.776,4.066-14.3,7.228L489.388,1.673,479.3-9.018c-22.587-23.942-49.089-37.193-81.614-40.807-39.15-4.216-77.247,10.39-106.007,40.957L281.44,1.823l-13.7-5.873c-7.68-3.162-14.154-6.625-14.3-7.378-.753-1.958,12.347-17.768,22.737-27.556C311.555-72.562,359.891-87.921,408.98-80.995Zm385.481,0c23.189,3.162,46.679,12.649,67.76,27.1C877.58-43.2,904.383-15.343,903.028-11.277c-.3.753-6.776,4.066-14.3,7.228L874.87,1.673,864.781-9.018C835.87-39.586,794.762-54.945,756.364-49.674c-30.417,4.216-53.3,15.51-75.59,37.494l-14.3,13.853L652.917-4.049c-7.378-3.313-13.853-6.625-14-7.378C638.16-13.385,651.26-29.2,661.65-38.983,697.036-72.562,745.372-87.921,794.461-80.995Zm385.481,0c23.189,3.162,46.679,12.649,67.76,27.1,15.359,10.691,42.162,38.548,40.807,42.614-.3.753-6.776,4.066-14.3,7.228l-13.853,5.722L1250.262-9.018c-28.911-30.567-70.019-45.926-108.417-40.656-30.417,4.216-53.3,15.51-75.59,37.494L1051.95,1.673,1038.4-4.049c-7.378-3.313-13.853-6.625-14-7.378-.753-1.958,12.348-17.768,22.737-27.556C1082.517-72.562,1130.853-87.921,1179.942-80.995Zm385.481,0c23.189,3.162,46.679,12.649,67.76,27.1,15.359,10.691,42.162,38.548,40.807,42.614-.3.753-6.776,4.066-14.3,7.228l-13.853,5.722L1635.743-9.018c-28.911-30.567-70.019-45.926-108.417-40.656-30.417,4.216-53.3,15.51-75.59,37.494L1437.431,1.673l-13.552-5.722c-7.378-3.313-13.853-6.625-14-7.378-.753-1.958,12.348-17.768,22.737-27.556C1468-72.562,1516.334-87.921,1565.423-80.995ZM206.753-47.115c6.927,3.463,9.938,6.625,13.4,13.251,2.861,5.722,3.012,6.324.6,10.54l-2.409,4.668h-51.2l-2.409-4.668c-2.409-4.517-2.409-4.969,1.054-11.143A30.8,30.8,0,0,1,206.753-47.115Zm385.481,0c6.927,3.463,9.938,6.625,13.4,13.251,2.861,5.722,3.012,6.324.6,10.54l-2.409,4.668h-51.2l-2.409-4.668c-2.409-4.517-2.409-4.969,1.054-11.143A30.8,30.8,0,0,1,592.234-47.115Zm385.481,0c6.927,3.463,9.938,6.625,13.4,13.251,2.861,5.722,3.012,6.324.6,10.54l-2.409,4.668h-51.2L935.7-23.323c-2.409-4.517-2.409-4.969,1.054-11.143A30.8,30.8,0,0,1,977.715-47.115Zm385.481,0c6.927,3.463,9.938,6.625,13.4,13.251,2.861,5.722,3.012,6.324.6,10.54l-2.409,4.668h-51.2l-2.409-4.668c-2.409-4.517-2.409-4.969,1.054-11.143A30.8,30.8,0,0,1,1363.2-47.115Zm385.481,0c6.927,3.463,9.938,6.625,13.4,13.251,2.861,5.722,3.012,6.324.6,10.54l-2.409,4.668h-51.2l-2.409-4.668c-2.409-4.517-2.409-4.969,1.054-11.143A30.8,30.8,0,0,1,1748.677-47.115ZM405.064-16.1c11.293,2.108,20.78,6.023,32.224,13.251,8.884,5.571,23.49,19.425,23.49,22.135,0,1.054-10.239,10.39-19.123,17.618-3.614,2.71-3.614,2.71-11.745-4.969-9.637-9.035-23.49-15.961-35.687-17.919-18.069-2.861-38.548,4.066-53.154,17.919-8.131,7.68-8.131,7.68-11.745,4.969C319.385,28.928,310.2,20.345,310.2,18.989c0-2.71,15.359-16.714,25.147-23.039,10.239-6.475,25-11.745,38.849-13.7C383.682-19.107,391.362-18.655,405.064-16.1Zm385.481,0c11.293,2.108,20.78,6.023,32.224,13.251,8.884,5.571,23.49,19.425,23.49,22.135,0,1.054-10.239,10.39-19.123,17.618-3.614,2.71-3.614,2.71-11.745-4.969-14.606-13.853-35.085-20.78-53-17.919-12.347,1.958-26.2,8.884-35.838,17.919-8.131,7.68-8.131,7.68-11.745,4.969-9.938-7.981-19.123-16.564-19.123-17.919,0-2.71,15.359-16.714,25.147-23.039,10.239-6.475,25-11.745,38.849-13.7C769.163-19.107,776.843-18.655,790.545-16.1Zm385.481,0c11.293,2.108,20.78,6.023,32.224,13.251,8.884,5.571,23.49,19.425,23.49,22.135,0,1.054-10.239,10.39-19.124,17.618-3.614,2.71-3.614,2.71-11.745-4.969-9.637-9.035-23.49-15.961-35.687-17.919-18.069-2.861-38.548,4.066-53.154,17.919-8.131,7.68-8.131,7.68-11.745,4.969-9.938-7.981-19.124-16.564-19.124-17.919,0-2.71,15.359-16.714,25.147-23.039,10.239-6.475,25-11.745,38.849-13.7C1154.644-19.107,1162.324-18.655,1176.027-16.1Zm385.481,0c11.293,2.108,20.78,6.023,32.224,13.251,8.884,5.571,23.49,19.425,23.49,22.135,0,1.054-10.239,10.39-19.123,17.618-3.614,2.71-3.614,2.71-11.745-4.969-14.606-13.853-35.085-20.78-53-17.919-12.347,1.958-26.2,8.884-35.838,17.919-8.131,7.68-8.131,7.68-11.745,4.969-9.938-7.981-19.124-16.564-19.124-17.919,0-2.71,15.359-16.714,25.147-23.039,10.239-6.475,25-11.745,38.849-13.7C1540.126-19.107,1547.805-18.655,1561.508-16.1ZM233.4,18.989c27.556,7.378,48.637,19.575,70.17,40.355,15.208,14.456,23.039,24.544,20.78,26.5-.753.753-6.475,3.463-12.649,6.174-6.174,2.56-12.046,5.12-13.1,5.421-.9.452-6.625-4.367-12.8-10.691-25.448-26.8-57.069-40.506-93.058-40.506s-67.76,13.7-93.058,40.355L88.7,98.194,75.6,92.622c-7.228-3.012-13.7-6.023-14.456-6.776C57.68,82.835,82.224,56.032,99.992,43.534c22.286-15.66,42.011-23.49,73.181-28.911,2.108-.452,13.251-.452,24.845-.151C214.583,14.924,222.262,15.978,233.4,18.989Zm385.481,0c27.556,7.378,48.637,19.575,70.17,40.355,15.208,14.456,23.039,24.544,20.78,26.5-.753.753-6.475,3.463-12.648,6.174-6.174,2.56-12.046,5.12-13.1,5.421-.9.452-6.625-4.367-12.8-10.691-25.448-26.8-57.069-40.506-93.058-40.506s-67.76,13.7-93.057,40.355L474.18,98.194l-13.1-5.571c-7.228-3.012-13.7-6.023-14.456-6.776-3.463-3.012,21.081-29.815,38.849-42.313,22.286-15.66,42.011-23.49,73.181-28.911,2.108-.452,13.251-.452,24.845-.151C600.064,14.924,607.743,15.978,618.886,18.989Zm385.481,0c27.556,7.378,48.637,19.575,70.17,40.355,15.208,14.456,23.039,24.544,20.78,26.5-.753.753-6.475,3.463-12.649,6.174-6.174,2.56-12.046,5.12-13.1,5.421-.9.452-6.625-4.367-12.8-10.691-25.448-26.8-57.069-40.506-93.058-40.506s-67.76,13.7-93.057,40.355L859.661,98.194l-13.1-5.571c-7.228-3.012-13.7-6.023-14.455-6.776-3.313-3.012,21.533-30.116,39-42.313,22.135-15.66,42.011-23.49,73.031-28.911,2.108-.452,13.251-.452,24.846-.151C985.545,14.924,993.224,15.978,1004.367,18.989Zm385.481,0c27.556,7.378,48.637,19.575,70.17,40.355,15.208,14.456,23.038,24.544,20.78,26.5-.753.753-6.475,3.463-12.649,6.174-6.174,2.56-12.046,5.12-13.1,5.421-.9.452-6.625-4.367-12.8-10.691-25.448-26.8-57.069-40.506-93.057-40.506s-67.76,13.7-93.058,40.355l-10.992,11.595-13.1-5.571c-7.228-3.012-13.7-6.023-14.455-6.776-3.313-3.012,21.533-30.116,39-42.313,22.135-15.66,42.012-23.49,73.031-28.911,2.108-.452,13.251-.452,24.845-.151C1371.026,14.924,1378.705,15.978,1389.848,18.989Zm385.481,0c27.556,7.378,48.637,19.575,70.17,40.355,15.208,14.456,23.038,24.544,20.78,26.5-.753.753-6.475,3.463-12.649,6.174-6.173,2.56-12.046,5.12-12.95,5.421-.9.452-6.625-4.517-12.8-10.842-26.05-26.8-57.22-40.355-93.208-40.355s-67.76,13.7-93.057,40.355l-10.992,11.595-13.1-5.571c-7.228-3.012-13.7-6.023-14.456-6.776-3.313-3.012,21.533-30.116,39-42.313,22.135-15.66,42.011-23.49,73.031-28.911,2.108-.452,13.251-.452,24.845-.151C1756.507,14.924,1764.186,15.978,1775.329,18.989ZM400.4,49.858c6.475,3.162,10.691,7.981,13.552,14.907,1.506,3.614,1.506,5.12-.3,8.583l-2.108,4.066-26.05.151-26.05.151-2.259-4.668c-2.108-4.517-1.957-5.27,1.355-11.293C366.968,46.846,384.586,41.727,400.4,49.858Zm385.481,0c6.475,3.162,10.691,7.981,13.552,14.907,1.506,3.614,1.506,5.12-.3,8.583l-2.108,4.066-26.05.151-26.05.151-2.259-4.668c-2.108-4.517-1.958-5.27,1.355-11.293C752.449,46.846,770.067,41.727,785.878,49.858Zm385.481,0c6.475,3.162,10.691,7.981,13.552,14.907,1.506,3.614,1.506,5.12-.3,8.583l-2.108,4.066-26.05.151-26.05.151-2.259-4.668c-2.108-4.517-1.958-5.27,1.355-11.293C1137.93,46.846,1155.548,41.727,1171.359,49.858Zm385.481,0c6.475,3.162,10.691,7.981,13.552,14.907,1.506,3.614,1.506,5.12-.3,8.583l-2.108,4.066-26.05.151-26.05.151-2.259-4.668c-2.108-4.517-1.958-5.27,1.355-11.293C1523.411,46.846,1541.029,41.727,1556.84,49.858ZM222.864,82.835c13.1,4.517,29.513,14.907,38.1,24.093,3.915,4.216,7.077,8.131,7.077,8.734,0,1.054-10.239,10.39-19.123,17.618-3.614,2.71-3.614,2.71-11.444-4.668-15.359-14.3-28.309-19.274-48.486-18.22-15.359.753-28.76,6.625-40.656,17.768-9.336,8.884-7.83,9.185-22.436-4.066-9.938-8.734-9.938-9.185.9-19.425,10.842-10.541,26.8-19.425,42.614-23.942C181,77.414,210.366,78.618,222.864,82.835Zm385.481,0c13.1,4.517,29.513,14.907,38.1,24.093,3.915,4.216,7.077,8.131,7.077,8.734,0,1.054-10.239,10.39-19.123,17.618-3.614,2.71-3.614,2.71-11.444-4.668-15.359-14.3-28.309-19.274-48.486-18.22-15.359.753-28.76,6.625-40.656,17.768-9.336,8.884-7.83,9.185-22.436-4.066-9.938-8.734-9.938-9.185.9-19.425,10.842-10.541,26.8-19.425,42.614-23.942C566.485,77.414,595.848,78.618,608.346,82.835Zm385.481,0c13.1,4.517,29.513,14.907,38.1,24.093,3.915,4.216,7.077,8.131,7.077,8.734,0,1.054-10.239,10.39-19.123,17.618-3.614,2.71-3.614,2.71-11.444-4.668-15.359-14.3-28.309-19.274-48.486-18.22-15.359.753-28.76,6.625-40.656,17.768-9.336,8.884-7.83,9.185-22.436-4.066-9.938-8.734-9.938-9.185.9-19.425,10.842-10.541,26.8-19.425,42.614-23.942C951.966,77.414,981.329,78.618,993.827,82.835Zm385.481,0c13.1,4.517,29.514,14.907,38.1,24.093,3.915,4.216,7.077,8.131,7.077,8.734,0,1.054-10.239,10.39-19.124,17.618-3.614,2.71-3.614,2.71-11.444-4.668-15.359-14.3-28.309-19.274-48.486-18.22-15.359.753-28.761,6.625-40.656,17.768-9.336,8.884-7.83,9.185-22.436-4.066-9.938-8.734-9.938-9.185.9-19.425,10.842-10.541,26.8-19.425,42.614-23.942C1337.447,77.414,1366.81,78.618,1379.308,82.835Zm385.481,0a126.221,126.221,0,0,1,18.822,8.884c9.637,5.722,26.351,20.78,26.351,23.49,0,1.506-9.035,9.938-19.124,18.069-3.614,2.71-3.614,2.71-11.444-4.668-15.359-14.3-28.309-19.274-48.486-18.22-15.359.753-28.761,6.625-40.656,17.768-9.336,8.884-7.83,9.185-22.436-4.066-9.938-8.734-9.938-9.185.9-19.425,10.842-10.541,26.8-19.425,42.614-23.942C1722.928,77.414,1752.291,78.618,1764.789,82.835ZM408.98,111.746c23.189,3.162,46.679,12.649,67.76,27.1C492.1,149.541,518.9,177.4,517.547,181.464c-.3.753-6.776,4.066-14.3,7.228l-13.853,5.722L479.3,183.722c-22.587-23.942-49.089-37.193-81.614-40.807-39.15-4.216-77.247,10.39-106.007,40.957L281.44,194.564l-13.7-5.873c-7.68-3.162-14.154-6.625-14.3-7.378-.753-1.958,12.347-17.768,22.737-27.556C311.555,120.178,359.891,104.819,408.98,111.746Zm385.481,0c23.189,3.162,46.679,12.649,67.76,27.1,15.359,10.691,42.162,38.548,40.807,42.614-.3.753-6.776,4.066-14.3,7.228l-13.853,5.722-10.089-10.691c-28.911-30.567-70.019-45.926-108.417-40.656-30.417,4.216-53.3,15.51-75.59,37.494l-14.3,13.853-13.552-5.722c-7.378-3.313-13.853-6.625-14-7.378-.753-1.958,12.347-17.768,22.737-27.556C697.036,120.178,745.372,104.819,794.461,111.746Zm385.481,0c23.189,3.162,46.679,12.649,67.76,27.1,15.359,10.691,42.162,38.548,40.807,42.614-.3.753-6.776,4.066-14.3,7.228l-13.853,5.722-10.089-10.691c-28.911-30.567-70.019-45.926-108.417-40.656-30.417,4.216-53.3,15.51-75.59,37.494l-14.305,13.853-13.552-5.722c-7.378-3.313-13.853-6.625-14-7.378-.753-1.958,12.348-17.768,22.737-27.556C1082.517,120.178,1130.853,104.819,1179.942,111.746Zm385.481,0c23.189,3.162,46.679,12.649,67.76,27.1,15.359,10.691,42.162,38.548,40.807,42.614-.3.753-6.776,4.066-14.3,7.228l-13.853,5.722-10.089-10.691c-28.911-30.567-70.019-45.926-108.417-40.656-30.417,4.216-53.3,15.51-75.59,37.494l-14.305,13.853-13.552-5.722c-7.378-3.313-13.853-6.625-14-7.378-.753-1.958,12.348-17.768,22.737-27.556C1468,120.178,1516.334,104.819,1565.423,111.746Zm-1358.67,33.88c6.927,3.463,9.938,6.625,13.4,13.251,2.861,5.722,3.012,6.324.6,10.54l-2.409,4.668h-51.2l-2.409-4.668c-2.409-4.517-2.409-4.969,1.054-11.143A30.8,30.8,0,0,1,206.753,145.626Zm385.481,0c6.927,3.463,9.938,6.625,13.4,13.251,2.861,5.722,3.012,6.324.6,10.54l-2.409,4.668h-51.2l-2.409-4.668c-2.409-4.517-2.409-4.969,1.054-11.143A30.8,30.8,0,0,1,592.234,145.626Zm385.481,0c6.927,3.463,9.938,6.625,13.4,13.251,2.861,5.722,3.012,6.324.6,10.54l-2.409,4.668h-51.2l-2.409-4.668c-2.409-4.517-2.409-4.969,1.054-11.143A30.8,30.8,0,0,1,977.715,145.626Zm385.481,0c6.927,3.463,9.938,6.625,13.4,13.251,2.861,5.722,3.012,6.324.6,10.54l-2.409,4.668h-51.2l-2.409-4.668c-2.409-4.517-2.409-4.969,1.054-11.143A30.8,30.8,0,0,1,1363.2,145.626Zm385.481,0c6.927,3.463,9.938,6.625,13.4,13.251,2.861,5.722,3.012,6.324.6,10.54l-2.409,4.668h-51.2l-2.409-4.668c-2.409-4.517-2.409-4.969,1.054-11.143A30.8,30.8,0,0,1,1748.677,145.626ZM405.064,176.645c11.293,2.108,20.78,6.023,32.224,13.251,8.884,5.571,23.49,19.425,23.49,22.135,0,1.054-10.239,10.39-19.123,17.618-3.614,2.71-3.614,2.71-11.745-4.969-14.606-13.853-35.085-20.78-53-17.919-12.347,1.958-26.2,8.884-35.838,17.919-8.131,7.68-8.131,7.68-11.745,4.969-9.938-7.981-19.123-16.564-19.123-17.919,0-2.71,15.359-16.714,25.147-23.039,10.239-6.475,25-11.745,38.849-13.7C383.682,173.633,391.362,174.085,405.064,176.645Zm385.481,0c11.293,2.108,20.78,6.023,32.224,13.251,8.884,5.571,23.49,19.425,23.49,22.135,0,1.054-10.239,10.39-19.123,17.618-3.614,2.71-3.614,2.71-11.745-4.969-14.606-13.853-35.085-20.78-53-17.919-12.347,1.958-26.2,8.884-35.838,17.919-8.131,7.68-8.131,7.68-11.745,4.969-9.938-7.981-19.123-16.564-19.123-17.919,0-2.71,15.359-16.714,25.147-23.039,10.239-6.475,25-11.745,38.849-13.7C769.163,173.633,776.843,174.085,790.545,176.645Zm385.481,0c11.293,2.108,20.78,6.023,32.224,13.251,8.884,5.571,23.49,19.425,23.49,22.135,0,1.054-10.239,10.39-19.124,17.618-3.614,2.71-3.614,2.71-11.745-4.969-25.749-24.394-63.092-24.394-88.841,0-8.131,7.68-8.131,7.68-11.745,4.969-9.938-7.981-19.124-16.564-19.124-17.919,0-2.71,15.359-16.714,25.147-23.039,10.239-6.475,25-11.745,38.849-13.7C1154.644,173.633,1162.324,174.085,1176.027,176.645Zm385.481,0c11.293,2.108,20.78,6.023,32.224,13.251,8.884,5.571,23.49,19.425,23.49,22.135,0,1.054-10.239,10.39-19.123,17.618-3.614,2.71-3.614,2.71-11.745-4.969-25.749-24.394-63.092-24.394-88.841,0-8.131,7.68-8.131,7.68-11.745,4.969-9.938-7.981-19.124-16.564-19.124-17.919,0-2.71,15.359-16.714,25.147-23.039,10.239-6.475,25-11.745,38.849-13.7C1540.126,173.633,1547.805,174.085,1561.508,176.645Z" transform="translate(-271.544 -135.768)" fill="#4f5966"/>
      <path id="Path_73" data-name="Path 73" d="M129.583-22.121c-16.7,2.494-31.122,7.916-44.026,16.808L78.617-.542l30.146.325c16.482.108,43.592.108,60.183,0l30.037-.325-6.94-4.771c-9.326-6.4-22.88-12.579-32.314-14.639C151.487-21.8,135.222-22.989,129.583-22.121Z" fill="#4f5966"/>
      <path id="Path_74" data-name="Path 74" d="M407.183-22.121c-16.7,2.494-31.122,7.916-44.026,16.808l-6.94,4.771,30.146.325c16.482.108,43.592.108,60.183,0l30.037-.325-6.94-4.771c-9.326-6.4-22.88-12.579-32.314-14.639C429.087-21.8,412.822-22.989,407.183-22.121Z" fill="#4f5966"/>
      <path id="Path_75" data-name="Path 75" d="M684.783-22.121c-16.7,2.494-31.122,7.916-44.026,16.808l-6.94,4.771,30.146.325c16.482.108,43.592.108,60.183,0l30.037-.325-6.94-4.771c-9.326-6.4-22.88-12.579-32.314-14.639C706.687-21.8,690.422-22.989,684.783-22.121Z" fill="#4f5966"/>
      <path id="Path_76" data-name="Path 76" d="M962.383-22.121c-16.7,2.494-31.122,7.916-44.026,16.808l-6.94,4.771,30.146.325c16.483.108,43.592.108,60.183,0l30.037-.325-6.94-4.771c-9.326-6.4-22.88-12.579-32.314-14.639C984.287-21.8,968.022-22.989,962.383-22.121Z" fill="#4f5966"/>
      <path id="Path_77" data-name="Path 77" d="M1239.983-22.121c-16.7,2.494-31.121,7.916-44.026,16.808l-6.94,4.771,30.146.325c16.483.108,43.592.108,60.183,0l30.037-.325-6.94-4.771c-9.326-6.4-22.88-12.579-32.314-14.639C1261.887-21.8,1245.622-22.989,1239.983-22.121Z" fill="#4f5966"/>
    </g>
  </g>
</svg>
