<svg xmlns="http://www.w3.org/2000/svg" width="45.002" height="41.788" viewBox="0 0 45.002 41.788">
  <path id="icons8-youtube-logo" d="M13.643,5l3.214,9.643v6.429H19V14.643L22.215,5H20.072l-2.143,6.429L15.786,5ZM25.429,9.286a3.219,3.219,0,0,0-2.4.753c-.67.565-.854,1-.812,2.461v5.357a2.964,2.964,0,0,0,.82,2.394,3.064,3.064,0,0,0,2.394.82,3,3,0,0,0,2.411-.82,2.847,2.847,0,0,0,.8-2.394V12.5a3.174,3.174,0,0,0-.816-2.44A3.155,3.155,0,0,0,25.429,9.286Zm5.357,0v9.643a2.311,2.311,0,0,0,2.143,2.143A2.685,2.685,0,0,0,35.073,20v1.071h2.143V9.286H35.073v8.572c-.013.732-.875,1.071-1.071,1.071a.988.988,0,0,1-1.071-1.071V9.286Zm-5.357,2.143c.322,0,1.071,0,1.071,1.071v5.357c0,1.038-.724,1.071-1.071,1.071-.322,0-1.071-.013-1.071-1.071V12.5C24.358,11.626,24.823,11.429,25.429,11.429Zm-15,11.786A6.068,6.068,0,0,0,4,29.644V39.823c0,3.876,2.578,6.965,6.429,6.965H42.573A6.068,6.068,0,0,0,49,40.359V29.644a6.068,6.068,0,0,0-6.429-6.429ZM12.572,27.5H19v2.143H16.858V42.5H14.715V29.644H12.572Zm15,0h2.143v4.286a2.483,2.483,0,0,1,.967-.862,2.283,2.283,0,0,1,1.042-.276,1.958,1.958,0,0,1,1.611.72A3.12,3.12,0,0,1,34,33.394v6.429a2.481,2.481,0,0,1-.619,1.712,2.174,2.174,0,0,1-1.523.967,2.622,2.622,0,0,1-2.143-1.071V42.5H27.572ZM19,30.715h2.143v8.572a1.153,1.153,0,0,0,1.071,1.071c.871-.008.879-.82,1.071-1.071V30.715h2.143V42.5H23.286V41.43a2.711,2.711,0,0,1-1.051.837,2.488,2.488,0,0,1-1.314.234,2.107,2.107,0,0,1-1.385-.82A1.931,1.931,0,0,1,19,40.359Zm19.5,0a2.891,2.891,0,0,1,2.273.787,2.978,2.978,0,0,1,.728,2.306v3.336H37.216V38.8a2.2,2.2,0,0,0,.234,1.205.893.893,0,0,0,.837.352,1.019,1.019,0,0,0,.858-.289,2.544,2.544,0,0,0,.213-1.318v-.536H41.5v.636a3.5,3.5,0,0,1-.67,2.608,3.237,3.237,0,0,1-2.507.875,3.07,3.07,0,0,1-2.382-.921,3.64,3.64,0,0,1-.866-2.561V33.808a3.149,3.149,0,0,1,.963-2.331A3.525,3.525,0,0,1,38.5,30.715Zm-7.714,1.607a1.114,1.114,0,0,0-1.071,1.071v6.429c.008.31.481.536,1.071.536a1.052,1.052,0,0,0,1.071-1.046V33.93C31.858,32.858,31.377,32.323,30.787,32.323Zm7.5.536a1.09,1.09,0,0,0-1.071,1.071V35h2.143V33.93A1.033,1.033,0,0,0,38.287,32.858Z" transform="translate(-4 -5)" fill="#7ec6d3" fill-rule="evenodd"/>
</svg>
