<svg xmlns="http://www.w3.org/2000/svg" width="45.002" height="45.002" viewBox="0 0 45.002 45.002">
  <path id="icons8-twitter" d="M38,3H13A10,10,0,0,0,3,13V38A10,10,0,0,0,13,48H38A10,10,0,0,0,48,38V13A10,10,0,0,0,38,3Zm.125,16.286v.858c0,8.143-6.215,17.573-17.573,17.573a18,18,0,0,1-9.428-2.785h1.5a13.86,13.86,0,0,0,7.715-2.573,6.249,6.249,0,0,1-5.785-4.285,9.362,9.362,0,0,1,1.073.215,4.708,4.708,0,0,0,1.715-.215,6.192,6.192,0,0,1-4.928-6,10.693,10.693,0,0,0,2.785.858,7.021,7.021,0,0,1-2.785-5.358,4.921,4.921,0,0,1,.858-3A17.394,17.394,0,0,0,25.916,21c0-.428-.215-.858-.215-1.5a6.22,6.22,0,0,1,6.215-6.215,5.838,5.838,0,0,1,4.5,1.928,10.4,10.4,0,0,0,3.858-1.5,6.264,6.264,0,0,1-2.785,3.428,11.722,11.722,0,0,0,3.643-1.073A14.472,14.472,0,0,1,38.126,19.286Z" transform="translate(-3 -3)" fill="#7ec6d3"/>
</svg>
